<svg width="48" height="49" viewBox="0 0 48 49" fill="none" xmlns="http://www.w3.org/2000/svg">
<path d="M24 44.2938L23.064 45.4658C23.3298 45.6781 23.6599 45.7937 24 45.7937C24.3401 45.7937 24.6702 45.6781 24.936 45.4658L24 44.2938ZM36 18.7998C36 20.6398 35.394 22.9618 34.352 25.5238C33.322 28.0618 31.908 30.7238 30.404 33.2098C29.0394 35.4671 27.5594 37.6527 25.97 39.7578C24.58 41.5858 23.524 42.7538 23.064 43.1218L24.936 45.4658C25.726 44.8378 26.982 43.3818 28.358 41.5718C30.0113 39.3832 31.5507 37.1109 32.97 34.7638C34.53 32.1878 36.022 29.3818 37.13 26.6538C38.23 23.9498 39 21.2078 39 18.7998H36ZM24.936 43.1198C24.476 42.7538 23.42 41.5858 22.03 39.7578C20.4406 37.6527 18.9606 35.4671 17.596 33.2098C16.092 30.7238 14.68 28.0618 13.648 25.5238C12.606 22.9618 12 20.6418 12 18.7998H9C9 21.2078 9.77 23.9498 10.868 26.6538C11.978 29.3818 13.472 32.1878 15.028 34.7638C16.588 37.3398 18.228 39.7118 19.642 41.5718C21.018 43.3818 22.274 44.8378 23.064 45.4658L24.936 43.1198ZM12 18.7998C12 15.6172 13.2643 12.565 15.5147 10.3145C17.7652 8.06409 20.8174 6.7998 24 6.7998V3.7998C20.0218 3.7998 16.2064 5.38016 13.3934 8.1932C10.5804 11.0062 9 14.8216 9 18.7998H12ZM24 6.7998C27.1826 6.7998 30.2348 8.06409 32.4853 10.3145C34.7357 12.565 36 15.6172 36 18.7998H39C39 14.8216 37.4196 11.0062 34.6066 8.1932C31.7936 5.38016 27.9782 3.7998 24 3.7998V6.7998ZM29 18.7998C29 19.4564 28.8707 20.1066 28.6194 20.7132C28.3681 21.3199 27.9998 21.871 27.5355 22.3353C27.0712 22.7996 26.52 23.1679 25.9134 23.4192C25.3068 23.6705 24.6566 23.7998 24 23.7998V26.7998C26.1217 26.7998 28.1566 25.957 29.6569 24.4567C31.1571 22.9564 32 20.9215 32 18.7998H29ZM24 23.7998C22.6739 23.7998 21.4021 23.273 20.4645 22.3353C19.5268 21.3977 19 20.1259 19 18.7998H16C16 20.9215 16.8429 22.9564 18.3431 24.4567C19.8434 25.957 21.8783 26.7998 24 26.7998V23.7998ZM19 18.7998C19 17.4737 19.5268 16.202 20.4645 15.2643C21.4021 14.3266 22.6739 13.7998 24 13.7998V10.7998C21.8783 10.7998 19.8434 11.6427 18.3431 13.143C16.8429 14.6432 16 16.6781 16 18.7998H19ZM24 13.7998C25.3261 13.7998 26.5979 14.3266 27.5355 15.2643C28.4732 16.202 29 17.4737 29 18.7998H32C32 16.6781 31.1571 14.6432 29.6569 13.143C28.1566 11.6427 26.1217 10.7998 24 10.7998V13.7998Z" fill="#111111"/>
</svg>
