<svg width="48" height="49" viewBox="0 0 48 49" fill="none" xmlns="http://www.w3.org/2000/svg">
<path d="M32 35.2998H36C37.1935 35.2998 38.3381 34.8257 39.182 33.9818C40.0259 33.1379 40.5 31.9933 40.5 30.7998V12.7998C40.5 11.6063 40.0259 10.4617 39.182 9.61782C38.3381 8.77391 37.1935 8.2998 36 8.2998H12C10.8065 8.2998 9.66193 8.77391 8.81802 9.61782C7.97411 10.4617 7.5 11.6063 7.5 12.7998V30.7998C7.5 31.9933 7.97411 33.1379 8.81802 33.9818C9.66193 34.8257 10.8065 35.2998 12 35.2998H24C25.1935 35.2998 26.3381 35.7739 27.182 36.6178C28.0259 37.4617 28.5 38.6063 28.5 39.7998V42.7998M30 26.2998H15M33 17.2998H15" stroke="#111111" stroke-width="3"/>
</svg>
